<svg width="19" height="18" viewBox="0 0 19 18" fill="none" xmlns="http://www.w3.org/2000/svg">
<path d="M9.27411 15.834C9.36916 15.9013 9.48276 15.9375 9.59923 15.9375C9.71571 15.9375 9.82931 15.9013 9.92436 15.834L9.59961 15.375L9.92511 15.834L9.93111 15.8295L9.94686 15.8182L10.0069 15.7748C10.0589 15.7373 10.1326 15.6825 10.2281 15.6105C11.3426 14.7693 12.3946 13.8484 13.3759 12.855C14.2369 11.979 15.1121 10.9552 15.7751 9.86925C16.4351 8.78925 16.9121 7.60125 16.9121 6.41025C16.9121 4.9965 16.4734 3.89175 15.6971 3.14175C14.9246 2.39625 13.8821 2.0625 12.7871 2.0625C11.4934 2.0625 10.3511 2.68725 9.59961 3.65025C8.84811 2.68725 7.70511 2.0625 6.41211 2.0625C4.10211 2.0625 2.28711 4.04175 2.28711 6.41025C2.28711 7.60125 2.76486 8.7885 3.42411 9.86925C4.08711 10.9552 4.96236 11.979 5.82336 12.8558C6.86946 13.9141 7.99582 14.89 9.19236 15.7748L9.25236 15.8182L9.26811 15.8295L9.27411 15.834Z" fill="#D9D9D9"/>
</svg>
