<svg width="16" height="14" viewBox="0 0 16 14" fill="none" xmlns="http://www.w3.org/2000/svg">
<path d="M7.6745 13.834C7.76955 13.9013 7.88315 13.9375 7.99963 13.9375C8.1161 13.9375 8.2297 13.9013 8.32475 13.834L8 13.375L8.3255 13.834L8.3315 13.8295L8.34725 13.8182L8.40725 13.7748C8.45925 13.7373 8.533 13.6825 8.6285 13.6105C9.74299 12.7693 10.795 11.8484 11.7762 10.855C12.6372 9.979 13.5125 8.95525 14.1755 7.86925C14.8355 6.78925 15.3125 5.60125 15.3125 4.41025C15.3125 2.9965 14.8737 1.89175 14.0975 1.14175C13.325 0.39625 12.2825 0.0625 11.1875 0.0625C9.89375 0.0625 8.7515 0.68725 8 1.65025C7.2485 0.68725 6.1055 0.0625 4.8125 0.0625C2.5025 0.0625 0.6875 2.04175 0.6875 4.41025C0.6875 5.60125 1.16525 6.7885 1.8245 7.86925C2.4875 8.95525 3.36275 9.979 4.22375 10.8558C5.26986 11.9141 6.39621 12.89 7.59275 13.7748L7.65275 13.8182L7.6685 13.8295L7.6745 13.834Z" fill="#FF7878"/>
</svg>
