<svg width="94" height="35" viewBox="0 0 94 35" fill="none" xmlns="http://www.w3.org/2000/svg">
<path d="M21.436 0.795998H26.26V34.24H21.436V0.795998ZM24.316 13.288H30.184V17.248H24.316V13.288ZM0.124 22.108H1.816C3.088 22.108 4.264 22.084 5.344 22.036C6.448 21.988 7.624 21.844 8.872 21.604L9.232 25.492C7.912 25.732 6.676 25.888 5.524 25.96C4.396 26.008 3.16 26.032 1.816 26.032H0.124V22.108ZM0.124 4.18H8.692V7.996H4.84V23.908H0.124V4.18ZM10.384 22.108H12.148C13.42 22.108 14.488 22.096 15.352 22.072C16.24 22.048 17.032 22 17.728 21.928C18.424 21.832 19.108 21.7 19.78 21.532L20.176 25.42C19.432 25.612 18.7 25.756 17.98 25.852C17.284 25.924 16.468 25.972 15.532 25.996C14.62 26.02 13.492 26.032 12.148 26.032H10.384V22.108ZM10.384 4.18H19.384V7.996H15.1V23.98H10.384V4.18ZM53.6212 0.795998H58.4092V34.24H53.6212V0.795998ZM57.3292 13.432H63.1972V17.356H57.3292V13.432ZM33.6412 22.576H36.4132C38.3092 22.576 40.0852 22.552 41.7412 22.504C43.3972 22.456 45.0052 22.36 46.5652 22.216C48.1492 22.048 49.7572 21.832 51.3892 21.568L51.8212 25.42C50.1412 25.708 48.4852 25.936 46.8532 26.104C45.2452 26.248 43.5892 26.356 41.8852 26.428C40.1812 26.5 38.3572 26.536 36.4132 26.536H33.6412V22.576ZM33.5692 3.64H48.9052V16.564H38.3572V24.088H33.6412V12.784H44.1532V7.492H33.5692V3.64ZM88.9024 0.868H93.4744V21.748H88.9024V0.868ZM84.8704 9.076H90.1624V12.964H84.8704V9.076ZM82.0264 1.48H86.4904V20.632H82.0264V1.48ZM64.8904 4.252H81.0904V7.96H64.8904V4.252ZM73.0264 9.004C74.4424 9.004 75.6904 9.256 76.7704 9.76C77.8504 10.264 78.6904 10.948 79.2904 11.812C79.9144 12.676 80.2264 13.684 80.2264 14.836C80.2264 15.988 79.9144 17.008 79.2904 17.896C78.6904 18.76 77.8504 19.444 76.7704 19.948C75.6904 20.428 74.4424 20.668 73.0264 20.668C71.6584 20.668 70.4224 20.428 69.3184 19.948C68.2384 19.444 67.3864 18.76 66.7624 17.896C66.1384 17.008 65.8264 15.988 65.8264 14.836C65.8264 13.684 66.1384 12.676 66.7624 11.812C67.3864 10.948 68.2384 10.264 69.3184 9.76C70.4224 9.256 71.6584 9.004 73.0264 9.004ZM73.0264 12.46C72.1624 12.46 71.4544 12.664 70.9024 13.072C70.3744 13.48 70.1104 14.068 70.1104 14.836C70.1104 15.604 70.3744 16.204 70.9024 16.636C71.4544 17.044 72.1624 17.248 73.0264 17.248C73.8904 17.248 74.5984 17.044 75.1504 16.636C75.7024 16.204 75.9784 15.604 75.9784 14.836C75.9784 14.068 75.7024 13.48 75.1504 13.072C74.6224 12.664 73.9144 12.46 73.0264 12.46ZM70.6504 1.192H75.3664V6.808H70.6504V1.192ZM82.1704 22.072C85.7464 22.072 88.5544 22.6 90.5944 23.656C92.6344 24.712 93.6544 26.212 93.6544 28.156C93.6544 30.076 92.6344 31.564 90.5944 32.62C88.5544 33.676 85.7464 34.204 82.1704 34.204C78.5944 34.204 75.7864 33.676 73.7464 32.62C71.7304 31.564 70.7224 30.076 70.7224 28.156C70.7224 26.212 71.7304 24.712 73.7464 23.656C75.7864 22.6 78.5944 22.072 82.1704 22.072ZM82.2064 25.636C79.9744 25.636 78.2944 25.84 77.1664 26.248C76.0384 26.656 75.4744 27.292 75.4744 28.156C75.4744 28.996 76.0384 29.62 77.1664 30.028C78.2944 30.436 79.9744 30.64 82.2064 30.64C84.3904 30.64 86.0344 30.436 87.1384 30.028C88.2664 29.62 88.8304 28.996 88.8304 28.156C88.8304 27.292 88.2664 26.656 87.1384 26.248C86.0344 25.84 84.3904 25.636 82.2064 25.636Z" fill="#6EA1F4"/>
</svg>
