<svg width="34" height="13" viewBox="0 0 34 13" fill="none" xmlns="http://www.w3.org/2000/svg">
<path d="M8.65621 2.5121C8.76288 2.45877 8.83221 2.44277 8.86421 2.4641C8.86421 2.4641 8.88021 2.46943 8.91221 2.4801C8.94421 2.4801 8.98154 2.49077 9.02421 2.5121C9.06688 2.52277 9.10954 2.53343 9.15221 2.5441C9.32288 2.58677 9.42955 2.6401 9.47221 2.7041C9.52555 2.7681 9.56288 2.90143 9.58421 3.1041C9.61621 3.34943 9.63221 3.49343 9.63221 3.5361V3.8241C9.63221 4.21877 9.62154 4.5761 9.60021 4.8961C9.57888 5.1841 9.59488 5.35477 9.64821 5.4081C9.71221 5.45077 9.90954 5.44543 10.2402 5.3921C10.4429 5.3601 10.6295 5.37077 10.8002 5.4241C10.9709 5.4881 11.0882 5.50943 11.1522 5.4881C11.2482 5.47743 11.3175 5.50943 11.3602 5.5841C11.4029 5.6481 11.4295 5.76543 11.4402 5.9361C11.4509 6.07477 11.4455 6.16543 11.4242 6.2081C11.4029 6.2401 11.3282 6.2881 11.2002 6.3521C11.0722 6.4161 10.9282 6.4961 10.7682 6.5921C10.6615 6.66677 10.5282 6.69877 10.3682 6.6881C9.96288 6.66677 9.70688 6.6721 9.60021 6.7041C9.50421 6.7361 9.45621 6.8321 9.45621 6.9921C9.45621 7.14143 9.44021 7.25877 9.40821 7.3441C9.37621 7.42943 9.37088 7.5521 9.39221 7.7121C9.45621 8.18143 9.46688 8.67743 9.42421 9.2001C9.38154 9.72277 9.30688 9.9841 9.20021 9.9841C9.15754 9.9841 9.07754 10.0321 8.96021 10.1281C8.84288 10.2134 8.76821 10.2561 8.73621 10.2561C8.70421 10.2561 8.62954 10.2294 8.51221 10.1761C8.32021 10.0801 8.24021 9.95743 8.27221 9.8081C8.28288 9.73343 8.25621 9.63743 8.19221 9.5201C8.07488 9.28543 8.03754 9.08277 8.08021 8.9121C8.11221 8.79477 8.10688 8.6561 8.06421 8.4961C7.96821 8.13343 7.96288 7.8241 8.04821 7.5681C8.09088 7.4401 8.10688 7.30677 8.09621 7.1681C8.07488 7.01877 8.09621 6.89077 8.16021 6.7841C8.22421 6.6881 8.24554 6.5121 8.22421 6.2561C8.21354 6.0001 8.22421 5.8401 8.25621 5.7761C8.28821 5.7121 8.31488 5.56277 8.33621 5.3281C8.35754 5.08277 8.36288 4.87477 8.35221 4.7041C8.35221 4.56543 8.35221 4.4321 8.35221 4.3041C8.37354 3.96277 8.37354 3.67477 8.35221 3.4401C8.33088 3.23743 8.35221 3.04543 8.41621 2.8641C8.48021 2.68277 8.56021 2.56543 8.65621 2.5121ZM5.87221 2.9441C6.08554 2.8801 6.26154 2.85877 6.40021 2.8801C6.82688 2.92277 7.08288 2.96543 7.16821 3.0081C7.25354 3.0401 7.31754 3.1361 7.36021 3.2961C7.43488 3.60543 7.40288 3.84543 7.26421 4.0161C7.12554 4.18677 6.90154 4.26143 6.59221 4.2401C6.36821 4.22943 6.18154 4.25077 6.03221 4.3041C5.88288 4.3681 5.73354 4.4001 5.58421 4.4001H5.37621L5.34421 4.8161C5.33354 5.05077 5.32821 5.2801 5.32821 5.5041C5.32821 5.68543 5.28554 5.8721 5.20021 6.0641C5.05088 6.39477 4.98154 6.7521 4.99221 7.1361C5.01354 7.5201 5.10954 7.75477 5.28021 7.8401C5.34421 7.88277 5.51488 7.9041 5.79221 7.9041C6.08021 7.89343 6.28288 7.90943 6.40021 7.9521C6.52821 7.99477 6.62954 8.01077 6.70421 8.0001C6.84288 7.9681 6.96021 8.0961 7.05621 8.3841C7.13088 8.6401 7.08821 8.85877 6.92821 9.0401C6.83221 9.14677 6.78421 9.21077 6.78421 9.2321C6.78421 9.2641 6.73621 9.29077 6.64021 9.3121C6.54421 9.33343 6.46421 9.33343 6.40021 9.3121C6.32554 9.29077 6.05888 9.2801 5.60021 9.2801C5.14154 9.2801 4.90154 9.29077 4.88021 9.3121C4.84821 9.36543 4.74154 9.3761 4.56021 9.3441C4.37888 9.30143 4.22954 9.24277 4.11221 9.1681C4.02688 9.09343 3.94688 9.07743 3.87221 9.1201C3.81888 9.16277 3.64821 9.2001 3.36021 9.2321C3.09354 9.25343 2.94421 9.27477 2.91221 9.2961C2.85888 9.31743 2.78421 9.32277 2.68821 9.3121C2.59221 9.30143 2.50688 9.27477 2.43221 9.2321C2.33621 9.1681 2.21354 9.14677 2.06421 9.1681C1.90421 9.18943 1.77088 9.17343 1.66421 9.1201C1.54688 9.07743 1.44021 9.0561 1.34421 9.0561C1.23754 9.0561 1.15221 9.01343 1.08821 8.9281C1.00288 8.84277 0.906878 8.7521 0.800211 8.6561C0.544211 8.4001 0.394878 8.2401 0.352211 8.1761C0.320211 8.10143 0.256211 7.84543 0.160211 7.4081C0.128211 7.2481 0.0908776 7.10943 0.0482109 6.9921C0.0162109 6.84277 0.00554428 6.59743 0.0162109 6.2561C0.0375443 5.9041 0.0748776 5.6801 0.128211 5.5841C0.160211 5.5201 0.186878 5.37077 0.208211 5.1361C0.229544 4.90143 0.272211 4.71477 0.336211 4.5761C0.410878 4.43743 0.432211 4.29877 0.400211 4.1601C0.368211 3.9681 0.405544 3.7601 0.512211 3.5361C0.629544 3.3121 0.773544 3.1681 0.944211 3.1041C0.997544 3.08277 1.13088 3.06143 1.34421 3.0401C1.56821 3.01877 1.71221 3.0081 1.77621 3.0081C1.80821 3.01877 2.00554 3.02943 2.36821 3.0401C2.70954 3.05077 2.94421 3.0721 3.07221 3.1041C3.18954 3.1361 3.30154 3.14143 3.40821 3.1201C3.51488 3.09877 3.64821 3.1041 3.80821 3.1361C3.96821 3.1681 4.14954 3.1681 4.35221 3.1361C4.55488 3.1041 4.72021 3.1041 4.84821 3.1361C4.97621 3.1681 5.12554 3.15743 5.29621 3.1041C5.47754 3.05077 5.66954 2.99743 5.87221 2.9441ZM3.24821 4.3361C3.09888 4.29343 2.99754 4.2721 2.94421 4.2721C2.61354 4.3041 2.40021 4.36277 2.30421 4.4481C2.27221 4.46943 2.17088 4.4801 2.00021 4.4801C1.85088 4.4801 1.75488 4.50143 1.71221 4.5441C1.68021 4.5761 1.63221 4.69877 1.56821 4.9121C1.50421 5.14677 1.46688 5.31743 1.45621 5.4241C1.45621 5.53077 1.46688 5.7281 1.48821 6.0161C1.55221 6.67743 1.62688 7.09343 1.71221 7.2641C1.78688 7.4241 1.82954 7.54143 1.84021 7.6161C1.88288 7.79743 1.97354 7.8721 2.11221 7.8401C2.19754 7.82943 2.32554 7.84543 2.49621 7.8881C2.68821 7.93077 2.82154 7.93077 2.89621 7.8881C2.98154 7.8561 3.13088 7.82943 3.34421 7.8081C3.49354 7.79743 3.58954 7.78677 3.63221 7.7761C3.67488 7.76543 3.70688 7.73343 3.72821 7.6801C3.77088 7.60543 3.80821 7.38677 3.84021 7.0241C3.87221 6.65077 3.88288 6.3201 3.87221 6.0321C3.87221 5.69077 3.88821 5.4881 3.92021 5.4241C3.95221 5.3601 3.97354 5.19477 3.98421 4.9281C3.98421 4.69343 3.96821 4.54943 3.93621 4.4961C3.90421 4.4321 3.81888 4.4001 3.68021 4.4001C3.56288 4.4001 3.41888 4.37877 3.24821 4.3361ZM14.683 2.0481C14.747 1.99477 15.0296 2.0001 15.531 2.0641C15.723 2.0961 15.9683 2.1121 16.267 2.1121C16.459 2.10143 16.587 2.10677 16.651 2.1281C16.7256 2.13877 16.8163 2.17077 16.923 2.2241C17.083 2.30943 17.1896 2.3521 17.243 2.3521C17.4456 2.3521 17.6163 2.50143 17.755 2.8001C17.9043 3.0881 17.9363 3.34943 17.851 3.5841C17.8083 3.70143 17.803 3.84543 17.835 4.0161C17.8776 4.25077 17.8776 4.60277 17.835 5.0721C17.8136 5.33877 17.7283 5.57877 17.579 5.7921C17.4403 5.99477 17.2643 6.13343 17.051 6.2081C16.891 6.26143 16.7363 6.3201 16.587 6.3841C16.4056 6.45877 16.043 6.48543 15.499 6.4641C14.3683 6.42143 13.7176 6.51743 13.547 6.7521C13.483 6.83743 13.4456 7.06143 13.435 7.4241C13.4243 7.78677 13.4456 8.01077 13.499 8.0961C13.659 8.37343 13.787 8.54943 13.883 8.6241C13.9896 8.6881 14.1283 8.69343 14.299 8.6401C14.395 8.61877 14.5336 8.62943 14.715 8.6721C14.907 8.7041 15.2163 8.7201 15.643 8.7201C16.0803 8.7201 16.3576 8.7361 16.475 8.7681C16.5816 8.8001 16.7043 8.82677 16.843 8.8481C16.9816 8.86943 17.067 8.8961 17.099 8.9281C17.1416 8.94943 17.211 9.02943 17.307 9.1681C17.403 9.30677 17.4456 9.40277 17.435 9.4561C17.4243 9.50943 17.3496 9.61077 17.211 9.7601C17.083 9.89877 16.9603 9.97877 16.843 10.0001C16.7363 10.0214 16.3683 10.0481 15.739 10.0801C15.3443 10.1014 15.035 10.0854 14.811 10.0321C14.587 9.9681 14.3843 9.94143 14.203 9.9521C14.0216 9.9521 13.8616 9.91477 13.723 9.8401C13.595 9.75477 13.4936 9.73343 13.419 9.7761C13.259 9.8401 13.0403 9.7441 12.763 9.4881C12.4856 9.22143 12.2883 8.93877 12.171 8.6401C12.0963 8.40543 12.0323 8.21877 11.979 8.0801C11.883 7.8241 11.883 7.57877 11.979 7.3441C12.0963 7.0241 12.1763 6.7361 12.219 6.4801C12.251 6.2561 12.2883 6.10677 12.331 6.0321C12.3736 5.95743 12.4963 5.8241 12.699 5.6321C12.8483 5.48277 12.9496 5.3921 13.003 5.3601C13.0563 5.3281 13.1256 5.3121 13.211 5.3121C13.3283 5.3121 13.451 5.27477 13.579 5.2001C13.7816 5.0721 14.379 5.0081 15.371 5.0081C15.3923 5.0081 15.419 5.0081 15.451 5.0081C15.9096 4.99743 16.1763 4.97077 16.251 4.9281C16.3363 4.88543 16.3896 4.73077 16.411 4.4641C16.411 4.44277 16.411 4.42143 16.411 4.4001C16.4323 4.1121 16.4536 3.92543 16.475 3.8401C16.5176 3.59477 16.443 3.42943 16.251 3.3441C16.059 3.25877 15.707 3.22677 15.195 3.2481C14.7896 3.25877 14.5176 3.28543 14.379 3.3281C14.2403 3.3601 14.0963 3.3601 13.947 3.3281C13.7976 3.30677 13.643 3.3121 13.483 3.3441C13.227 3.39743 13.0456 3.4081 12.939 3.3761C12.843 3.3441 12.7523 3.2481 12.667 3.0881C12.475 2.7681 12.491 2.52277 12.715 2.3521C12.939 2.18143 13.3656 2.0961 13.995 2.0961C14.4323 2.08543 14.6616 2.06943 14.683 2.0481ZM19.643 2.2721C19.8136 2.19743 19.947 2.21877 20.043 2.3361C20.107 2.4001 20.1656 2.4321 20.219 2.4321C20.315 2.4321 20.379 2.46943 20.411 2.5441C20.4536 2.6081 20.4856 2.73077 20.507 2.9121C20.5283 3.1681 20.5443 3.34943 20.555 3.4561C20.5763 3.60543 20.5763 3.72277 20.555 3.8081C20.523 3.9041 20.5283 4.0161 20.571 4.1441C20.603 4.26143 20.603 4.42143 20.571 4.6241C20.539 4.80543 20.5336 5.0081 20.555 5.2321C20.5763 5.4241 20.6136 5.53077 20.667 5.5521C20.7203 5.57343 20.8856 5.54677 21.163 5.4721C21.4936 5.3761 21.7443 5.3601 21.915 5.4241C22.0536 5.46677 22.1496 5.4721 22.203 5.4401C22.3096 5.3761 22.4056 5.4081 22.491 5.5361C22.5763 5.65343 22.619 5.81343 22.619 6.0161C22.619 6.2081 22.475 6.37343 22.187 6.5121C21.899 6.65077 21.5416 6.73077 21.115 6.7521C20.7096 6.76277 20.4803 6.7841 20.427 6.8161C20.3843 6.83743 20.3683 6.9441 20.379 7.1361C20.379 7.34943 20.363 7.49877 20.331 7.5841C20.299 7.65877 20.283 7.73343 20.283 7.8081C20.283 7.9361 20.2936 8.3041 20.315 8.9121C20.3256 9.6481 20.3256 10.0641 20.315 10.1601C20.315 10.2561 20.2723 10.3361 20.187 10.4001C20.1016 10.4748 20.043 10.5121 20.011 10.5121C19.9896 10.5121 19.9416 10.5494 19.867 10.6241C19.7176 10.7414 19.563 10.7628 19.403 10.6881C19.243 10.6028 19.163 10.4641 19.163 10.2721C19.163 10.1334 19.1363 9.97343 19.083 9.7921C19.019 9.62143 19.003 9.4721 19.035 9.3441C19.0563 9.23743 19.0563 9.11477 19.035 8.9761C19.003 8.8481 18.9923 8.64543 19.003 8.3681C19.0136 8.09077 19.0403 7.89343 19.083 7.7761C19.115 7.65877 19.1096 7.56277 19.067 7.4881C19.0243 7.40277 19.003 7.33877 19.003 7.2961C19.003 7.24277 19.0296 7.15743 19.083 7.0401C19.1363 6.92277 19.1683 6.72543 19.179 6.4481C19.2216 5.56277 19.2696 5.0401 19.323 4.8801C19.355 4.76277 19.3656 4.6081 19.355 4.4161C19.3336 4.20277 19.339 4.06943 19.371 4.0161C19.403 3.96277 19.3923 3.81877 19.339 3.5841C19.2963 3.33877 19.291 3.1521 19.323 3.0241C19.355 2.8961 19.3816 2.7681 19.403 2.6401C19.435 2.43743 19.515 2.31477 19.643 2.2721ZM25.591 0.0800991C25.7296 0.0267658 25.8683 0.0480992 26.007 0.144099C26.071 0.186766 26.151 0.218766 26.247 0.240099C26.4496 0.314766 26.551 0.533433 26.551 0.896099C26.551 1.14143 26.599 1.29077 26.695 1.3441C26.8016 1.38677 27.0736 1.39743 27.511 1.3761C27.8523 1.36543 28.087 1.3921 28.215 1.4561C28.3536 1.50943 28.455 1.6321 28.519 1.8241C28.615 2.1121 28.535 2.31477 28.279 2.4321C28.023 2.54943 27.5323 2.6081 26.807 2.6081C26.7003 2.6081 26.3803 2.61343 25.847 2.6241C25.3136 2.6241 24.935 2.61877 24.711 2.6081C24.4336 2.6081 24.2256 2.62943 24.087 2.6721C23.6816 2.78943 23.447 2.74143 23.383 2.5281C23.3616 2.44277 23.3083 2.3681 23.223 2.3041C23.1163 2.22943 23.0736 2.1121 23.095 1.9521C23.127 1.7921 23.207 1.6641 23.335 1.5681C23.4736 1.4721 23.7616 1.41877 24.199 1.4081C24.6363 1.39743 24.9136 1.35477 25.031 1.2801C25.159 1.19477 25.223 1.01343 25.223 0.736099C25.223 0.533433 25.2496 0.389433 25.303 0.304099C25.3563 0.208099 25.4523 0.133432 25.591 0.0800991ZM31.975 1.5361C32.1456 1.3441 32.327 1.33877 32.519 1.5201C32.615 1.59477 32.695 1.64277 32.759 1.6641C32.8336 1.68543 32.8923 1.73877 32.935 1.8241C32.9883 1.89877 33.015 1.97877 33.015 2.0641C33.015 2.17077 33.0363 2.29877 33.079 2.4481C33.1323 2.58677 33.1323 2.7521 33.079 2.9441C33.0363 3.12543 33.031 3.4721 33.063 3.9841C33.095 4.4961 33.095 4.79477 33.063 4.8801C33.031 4.95477 33.031 5.09343 33.063 5.2961C33.0843 5.4561 33.0736 5.67477 33.031 5.9521C32.999 6.21877 32.9456 6.45877 32.871 6.6721C32.7963 6.8641 32.6203 6.97077 32.343 6.9921C32.0656 7.01343 31.9056 6.9281 31.863 6.7361C31.8523 6.6721 31.8203 6.54943 31.767 6.3681C31.703 6.19743 31.6816 5.98943 31.703 5.7441C31.7243 5.49877 31.703 5.31743 31.639 5.2001C31.5963 5.1041 31.575 5.04543 31.575 5.0241C31.575 4.9921 31.591 4.93343 31.623 4.8481C31.6763 4.73077 31.6763 4.65077 31.623 4.6081C31.5803 4.56543 31.463 4.55477 31.271 4.5761C30.983 4.59743 30.7643 4.69877 30.615 4.8801C30.4656 5.05077 30.4176 5.25343 30.471 5.4881C30.5136 5.6801 30.519 5.90943 30.487 6.1761C30.4656 6.44277 30.4176 6.6081 30.343 6.6721C30.3003 6.71477 30.183 6.76277 29.991 6.8161C29.8096 6.85877 29.6923 6.87477 29.639 6.8641C29.3936 6.8001 29.223 6.60277 29.127 6.2721C29.0416 5.93077 29.0416 5.5201 29.127 5.0401C29.1696 4.79477 29.1803 4.60277 29.159 4.4641C29.1056 4.25077 29.1483 3.95743 29.287 3.5841C29.3616 3.37077 29.383 3.2161 29.351 3.1201C29.3083 2.98143 29.3136 2.85343 29.367 2.7361C29.4096 2.65077 29.4043 2.5121 29.351 2.3201C29.2656 2.05343 29.3136 1.83477 29.495 1.6641C29.687 1.48277 29.911 1.44543 30.167 1.5521C30.3056 1.6161 30.4016 1.6481 30.455 1.6481C30.5083 1.6481 30.5723 1.6801 30.647 1.7441C30.7216 1.8081 30.7643 1.86677 30.775 1.9201C30.775 1.97343 30.775 2.04277 30.775 2.1281C30.7643 2.20277 30.7803 2.3041 30.823 2.4321C30.855 2.54943 30.8603 2.6721 30.839 2.8001C30.7963 3.01343 30.8123 3.16277 30.887 3.2481C30.9616 3.33343 31.0896 3.34943 31.271 3.2961C31.5163 3.21077 31.639 3.09343 31.639 2.9441C31.639 2.85877 31.6603 2.76277 31.703 2.6561C31.7563 2.54943 31.7723 2.41077 31.751 2.2401C31.719 1.97343 31.7936 1.73877 31.975 1.5361ZM25.191 3.2321C25.5536 3.15743 25.927 3.1681 26.311 3.2641C26.7056 3.34943 27.0523 3.49877 27.351 3.7121C27.607 3.9041 27.7563 4.03743 27.799 4.1121C27.8416 4.18677 27.9163 4.4481 28.023 4.8961C28.0763 5.14143 28.0976 5.34943 28.087 5.5201C28.0763 5.69077 28.023 5.87743 27.927 6.0801C27.8203 6.29343 27.7616 6.4641 27.751 6.5921C27.7083 6.82677 27.6016 6.97077 27.431 7.0241C27.3136 7.06677 27.2016 7.14143 27.095 7.2481C26.9776 7.36543 26.8336 7.46143 26.663 7.5361C26.439 7.64277 26.279 7.71743 26.183 7.7601C26.0656 7.81343 25.959 7.8401 25.863 7.8401C25.7776 7.8401 25.6123 7.8241 25.367 7.7921C25.2496 7.77077 25.1803 7.7761 25.159 7.8081C25.1163 7.88277 24.9723 7.88277 24.727 7.8081C24.4923 7.72277 24.327 7.6161 24.231 7.4881C24.1563 7.3921 24.055 7.30677 23.927 7.2321C23.767 7.1361 23.6123 6.9281 23.463 6.6081C23.3136 6.27743 23.255 6.02677 23.287 5.8561C23.3083 5.77077 23.3243 5.6321 23.335 5.4401C23.3456 5.2161 23.3936 4.9761 23.479 4.7201C23.575 4.45343 23.687 4.25077 23.815 4.1121C23.8896 4.0161 23.959 3.90943 24.023 3.7921C24.1296 3.55743 24.2896 3.4401 24.503 3.4401C24.599 3.4401 24.7056 3.4081 24.823 3.3441C24.9403 3.29077 25.063 3.25343 25.191 3.2321ZM26.087 4.4481C25.8096 4.39477 25.6016 4.39477 25.463 4.4481C25.335 4.49077 25.2336 4.60277 25.159 4.7841C25.1056 4.9121 25.0203 5.1041 24.903 5.3601C24.807 5.56277 24.7536 5.69077 24.743 5.7441C24.7323 5.79743 24.743 5.87743 24.775 5.9841C24.8176 6.10143 24.8443 6.1921 24.855 6.2561C24.855 6.4161 24.887 6.51743 24.951 6.5601C25.015 6.60277 25.1803 6.6241 25.447 6.6241C25.735 6.63477 25.9163 6.62943 25.991 6.6081C26.0763 6.5761 26.199 6.48543 26.359 6.3361C26.5296 6.18677 26.6523 5.9841 26.727 5.7281C26.8123 5.46143 26.8123 5.25877 26.727 5.1201C26.663 5.01343 26.6256 4.90677 26.615 4.8001C26.5936 4.69343 26.5456 4.61877 26.471 4.5761C26.3963 4.52277 26.2683 4.4801 26.087 4.4481ZM27.623 7.8241C27.8256 7.7601 28.183 7.73343 28.695 7.7441C29.2176 7.75477 29.5803 7.7921 29.783 7.8561C29.879 7.8881 30.0123 7.91477 30.183 7.9361C30.3643 7.95743 30.5243 8.01077 30.663 8.0961C30.8016 8.18143 30.9243 8.2241 31.031 8.2241C31.1696 8.2241 31.3563 8.33077 31.591 8.5441C31.8256 8.74677 31.9696 8.9281 32.023 9.0881C32.0443 9.1841 32.1083 9.32277 32.215 9.5041C32.4496 9.93077 32.5136 10.3308 32.407 10.7041C32.3643 10.8534 32.231 11.0934 32.007 11.4241C31.9643 11.4881 31.9323 11.5734 31.911 11.6801C31.9003 11.7868 31.8416 11.8828 31.735 11.9681C31.639 12.0534 31.5323 12.0961 31.415 12.0961C31.3403 12.0961 31.175 12.1548 30.919 12.2721C30.183 12.5814 29.543 12.6614 28.999 12.5121C28.8923 12.4801 28.775 12.4854 28.647 12.5281C28.3483 12.6028 27.9856 12.5974 27.559 12.5121C27.143 12.4374 26.8176 12.3041 26.583 12.1121C26.519 12.0588 26.4016 11.9681 26.231 11.8401C26.0603 11.7228 25.831 11.4294 25.543 10.9601C25.4256 10.7894 25.3563 10.6614 25.335 10.5761C25.3243 10.4908 25.3296 10.3254 25.351 10.0801C25.351 9.99477 25.3456 9.89877 25.335 9.7921C25.2923 9.5681 25.399 9.29077 25.655 8.9601C25.9216 8.62943 26.2043 8.41077 26.503 8.3041C26.663 8.25077 26.8336 8.1761 27.015 8.0801C27.1856 7.97343 27.3883 7.8881 27.623 7.8241ZM30.135 9.1681C29.8043 9.01877 29.5376 8.97077 29.335 9.0241C29.2176 9.0561 29.0683 9.06143 28.887 9.0401C28.7056 9.02943 28.519 9.04543 28.327 9.0881C28.135 9.13077 27.9643 9.16277 27.815 9.1841C27.5803 9.2161 27.399 9.26943 27.271 9.3441C27.1536 9.41877 27.031 9.55743 26.903 9.7601C26.7643 9.97343 26.7003 10.1228 26.711 10.2081C26.7216 10.2934 26.8336 10.4588 27.047 10.7041C27.2496 10.9601 27.351 11.0934 27.351 11.1041C27.351 11.1468 27.4043 11.1841 27.511 11.2161C27.6176 11.2481 27.7136 11.2588 27.799 11.2481C27.927 11.2374 28.119 11.2641 28.375 11.3281C28.7483 11.4348 29.063 11.4561 29.319 11.3921C29.4256 11.3708 29.5963 11.3388 29.831 11.2961C30.0443 11.2534 30.1883 11.2161 30.263 11.1841C30.3483 11.1521 30.439 11.0934 30.535 11.0081C30.631 10.9334 30.7323 10.8588 30.839 10.7841C30.935 10.7094 30.983 10.5601 30.983 10.3361C30.983 10.1014 30.935 9.93077 30.839 9.8241C30.743 9.71743 30.647 9.60543 30.551 9.4881C30.4656 9.3601 30.327 9.25343 30.135 9.1681Z" fill="#6EA1F4"/>
</svg>
